<?xml version="1.0" encoding="UTF-8"?>
<svg width="128" height="128" viewBox="0 0 128 128" xmlns="http://www.w3.org/2000/svg">
  <!-- Fundo -->
  <circle cx="64" cy="64" r="60" fill="#FFE55C"/>
  
  <!-- Orelhas -->
  <path d="M30 45C30 25 45 15 64 15C83 15 98 25 98 45" fill="#FFE55C" stroke="#2B3784" stroke-width="6"/>
  <path d="M40 42C40 32 50 25 64 25C78 25 88 32 88 42" fill="#FF6B6B"/>
  
  <!-- Rosto -->
  <circle cx="64" cy="64" r="50" fill="#FFE55C" stroke="#2B3784" stroke-width="6"/>
  
  <!-- Olhos -->
  <circle cx="45" cy="55" r="12" fill="#2B3784"/>
  <circle cx="83" cy="55" r="12" fill="#2B3784"/>
  <circle cx="48" cy="52" r="4" fill="white"/>
  <circle cx="86" cy="52" r="4" fill="white"/>
  
  <!-- Bochechas -->
  <circle cx="35" cy="70" r="8" fill="#FF9999" opacity="0.6"/>
  <circle cx="93" cy="70" r="8" fill="#FF9999" opacity="0.6"/>
  
  <!-- Sorriso -->
  <path d="M45 75C45 85 64 90 83 75" fill="none" stroke="#2B3784" stroke-width="4" stroke-linecap="round"/>
  
  <!-- Mãos -->
  <path d="M20 90C10 90 10 70 20 70C30 70 35 80 20 90Z" fill="#FFE55C" stroke="#2B3784" stroke-width="4"/>
  <path d="M108 90C118 90 118 70 108 70C98 70 93 80 108 90Z" fill="#FFE55C" stroke="#2B3784" stroke-width="4"/>
  
  <!-- Brilhos -->
  <circle cx="15" cy="30" r="3" fill="#FFD700"/>
  <circle cx="113" cy="30" r="3" fill="#FFD700"/>
</svg> 